<svg width="14" height="14" viewBox="0 0 14 14" fill="none" xmlns="http://www.w3.org/2000/svg">
<path d="M0 0V13.3333C1.76779e-05 13.5101 0.0702612 13.6797 0.195282 13.8047C0.320302 13.9297 0.489861 14 0.666667 14H13.3333C13.5101 14 13.6797 13.9297 13.8047 13.8047C13.9297 13.6797 14 13.5101 14 13.3333V9.33333H12.6667V12.6667H1.33333V0H0ZM10.6595 0.326823C10.5269 0.326987 10.3974 0.366666 10.2875 0.440792C10.1776 0.514917 10.0923 0.620123 10.0425 0.742971C9.99266 0.865819 9.98059 1.00073 10.0078 1.13047C10.035 1.26021 10.1003 1.37889 10.1953 1.47135L11.0573 2.33333H10.6829C7.32564 2.24978 5.2062 2.77182 3.98438 4.24219C2.76255 5.71255 2.61044 7.83757 2.66667 10.6797C2.67012 10.8565 2.74367 11.0247 2.87114 11.1473C2.9986 11.2699 3.16954 11.3368 3.34635 11.3333C3.52316 11.3299 3.69136 11.2563 3.81394 11.1289C3.93653 11.0014 4.00345 10.8305 4 10.6536C3.94522 7.88477 4.17793 6.0948 5.00977 5.09375C5.84161 4.0927 7.4447 3.58689 10.6504 3.66667H10.6582H11.0573L10.1953 4.52865C10.1313 4.59008 10.0802 4.66366 10.0451 4.74507C10.0099 4.82649 9.99127 4.91412 9.99037 5.00281C9.98947 5.0915 10.0063 5.17949 10.0398 5.26161C10.0733 5.34372 10.1229 5.41833 10.1856 5.48105C10.2483 5.54377 10.3229 5.59334 10.4051 5.62687C10.4872 5.66039 10.5752 5.6772 10.6639 5.67629C10.7526 5.67539 10.8402 5.6568 10.9216 5.62161C11.003 5.58642 11.0766 5.53534 11.138 5.47135L13.0788 3.5306C13.1269 3.49404 13.1698 3.45112 13.2064 3.40299L13.6094 3L13.2064 2.59701C13.1692 2.54779 13.1254 2.50397 13.0762 2.4668L11.138 0.528646C11.0758 0.464704 11.0014 0.413895 10.9192 0.379228C10.837 0.344561 10.7487 0.326741 10.6595 0.326823Z" fill="white"/>
</svg>
