<svg width="16" height="16" viewBox="0 0 16 16" fill="none" xmlns="http://www.w3.org/2000/svg">
<path d="M8.00025 1.0005C9.69915 1.0005 11.5011 2.43122 11.5011 3.49925V5.999C11.5011 6.96148 11.1009 8.8024 10.0278 9.64732C9.75418 9.86243 9.61211 10.2051 9.65313 10.5513C9.69415 10.8974 9.91227 11.1971 10.2289 11.3427L14.5827 13.4072C14.6168 13.4227 15 13.4872 15 14.0225L15.0005 14.999L1.00103 15V13.985C1.00103 13.5873 1.29919 13.4622 1.41875 13.4077L5.81209 11.3342C6.12726 11.1896 6.34487 10.8914 6.38689 10.5473C6.42892 10.2031 6.29034 9.86193 6.0202 9.64532C4.98065 8.81091 4.49639 6.97649 4.49639 6V3.50025C4.49689 2.45523 6.31636 1.0015 8.00025 1.0015V1.0005ZM8.00025 0C5.79108 0 3.49586 1.84392 3.49586 3.49975V5.9995C3.49586 7.09205 3.99462 9.30165 5.39337 10.4252L0.999531 12.4988C0.999531 12.4988 0 12.944 0 13.4987V15C0 15.5528 0.447738 16 0.999531 16H15C15.5528 16 16 15.5523 16 15V13.4987C16 12.911 15 12.4988 15 12.4988L10.6462 10.4342C12.0319 9.34367 12.5011 7.2006 12.5011 5.9995V3.49975C12.5011 1.84392 10.2089 0.00050025 7.99975 0.00050025L8.00025 0Z" fill="white"/>
</svg>
