<svg width="17" height="16" viewBox="0 0 17 16" fill="none" xmlns="http://www.w3.org/2000/svg">
<path d="M8.4973 4.5C6.43897 4.5 4.80286 6.05 4.80286 8C4.80286 9.95 6.43897 11.5 8.4973 11.5C10.5556 11.5 12.1917 9.95 12.1917 8C12.1917 6.05 10.5556 4.5 8.4973 4.5ZM8.4973 10.5C7.01952 10.5 5.85841 9.4 5.85841 8C5.85841 6.6 7.01952 5.5 8.4973 5.5C9.97508 5.5 11.1362 6.6 11.1362 8C11.1362 9.4 9.97508 10.5 8.4973 10.5Z" fill="#B3B3B3"/>
<path d="M16.2556 6.35L14.7778 5.9L14.4611 5.15L15.2 3.85C15.3583 3.55 15.3056 3.15 15.0417 2.9L13.775 1.7C13.5111 1.45 13.0889 1.4 12.7722 1.55L11.4 2.25L10.6083 1.95L10.1333 0.55C10.0278 0.25 9.71111 0 9.34167 0H7.54722C7.17778 0 6.86111 0.25 6.80833 0.6L6.33333 2C6.01667 2.05 5.75278 2.15 5.48889 2.3L4.11667 1.6C3.8 1.45 3.37778 1.5 3.11389 1.75L1.84722 2.95C1.58333 3.2 1.53056 3.6 1.68889 3.9L2.375 5.15C2.26944 5.4 2.16389 5.7 2.05833 5.95L0.580555 6.4C0.263889 6.5 0 6.8 0 7.15V8.85C0 9.2 0.263889 9.5 0.633333 9.6L2.11111 10.05L2.42778 10.8L1.68889 12.1C1.53056 12.4 1.58333 12.8 1.84722 13.05L3.11389 14.25C3.37778 14.5 3.8 14.55 4.11667 14.4L5.48889 13.7L6.28055 14L6.75556 15.45C6.86111 15.75 7.17778 16 7.54722 16H9.34167C9.71111 16 10.0278 15.75 10.1333 15.45L10.6083 14L11.4 13.7L12.7722 14.4C13.0889 14.55 13.5111 14.5 13.775 14.25L15.0417 13.05C15.3056 12.8 15.3583 12.4 15.2 12.1L14.4611 10.8L14.7778 10.05L16.3083 9.6C16.625 9.5 16.8889 9.2 16.8889 8.85V7.15C16.8889 6.8 16.625 6.45 16.2556 6.35ZM15.8333 8.7L13.9333 9.25L13.8806 9.5C13.7222 9.85 13.5639 10.2 13.4056 10.55L13.2472 10.8L14.1972 12.45L13.1417 13.45L11.4 12.55L11.1361 12.7C10.7667 12.9 10.3972 13.05 10.0278 13.15L9.76389 13.2L9.18333 15H7.70555L7.125 13.2L6.86111 13.15C6.49167 13 6.12222 12.85 5.75278 12.7L5.48889 12.55L3.74722 13.45L2.69167 12.45L3.64167 10.8L3.48333 10.55C3.27222 10.2 3.11389 9.85 3.00833 9.5L2.95556 9.25L1.05556 8.7V7.3L2.85 6.8L2.95556 6.55C3.06111 6.15 3.21944 5.8 3.43056 5.45L3.58889 5.2L2.69167 3.55L3.74722 2.55L5.43611 3.45L5.7 3.3C6.06944 3.1 6.43889 2.95 6.86111 2.85L7.125 2.75L7.70555 1H9.18333L9.76389 2.75L10.0278 2.85C10.3972 2.95 10.7667 3.1 11.1361 3.3L11.4 3.45L13.1417 2.55L14.1972 3.55L13.2472 5.2L13.4056 5.45C13.6167 5.8 13.775 6.15 13.8806 6.5L13.9333 6.75L15.8333 7.3V8.7Z" fill="#B3B3B3"/>
</svg>
