<svg width="20" height="20" viewBox="0 0 20 20" fill="none" xmlns="http://www.w3.org/2000/svg">
<path d="M17.018 18.5928H2.5748C1.70518 18.5928 1 17.8876 1 17.018V2.5748C1 1.70518 1.70518 1 2.5748 1H17.018C17.8876 1 18.5928 1.70518 18.5928 2.5748V17.018C18.5928 17.8876 17.8876 18.5928 17.018 18.5928Z" fill="white"/>
<path d="M17.3035 1.02887C17.6197 1.31695 17.8219 1.72788 17.8219 2.18966V16.6328C17.8219 17.5025 17.1168 18.2076 16.2471 18.2076H1.80432C1.7065 18.2076 1.61137 18.1961 1.51855 18.1788C1.79816 18.4333 2.16673 18.5928 2.57458 18.5928H17.0178C17.8874 18.5928 18.5926 17.8876 18.5926 17.018V2.57479C18.5926 1.80298 18.0364 1.16367 17.3035 1.02887Z" fill="white"/>
<path d="M17.018 18.5928H2.5748C1.70518 18.5928 1 17.8876 1 17.018V2.5748C1 1.70518 1.70518 1 2.5748 1H17.018C17.8876 1 18.5928 1.70518 18.5928 2.5748V17.018C18.5928 17.8876 17.8876 18.5928 17.018 18.5928Z" stroke="white" stroke-miterlimit="10"/>
</svg>
