<svg width="41" height="41" viewBox="0 0 41 41" fill="none" xmlns="http://www.w3.org/2000/svg">
<path d="M20.5 0C9.17807 0 0 9.17807 0 20.5C0 31.8219 9.17807 41 20.5 41C31.8219 41 41 31.8219 41 20.5C41 9.17807 31.8219 0 20.5 0Z" fill="#B044D6"/>
<path d="M30.474 11.7916L26.8125 30.2524C26.8125 30.2524 26.3005 31.5327 24.8922 30.9181L16.4427 24.4401L13.3702 22.9552L8.19816 21.214C8.19816 21.214 7.40443 20.9324 7.32755 20.3179C7.25084 19.7034 8.22379 19.3706 8.22379 19.3706L28.784 11.3051C28.784 11.3051 30.474 10.5626 30.474 11.7916Z" fill="white"/>
<path d="M15.7941 30.0457C15.7941 30.0457 15.5475 30.0227 15.2401 29.0496C14.9329 28.0766 13.3711 22.9558 13.3711 22.9558L25.7891 15.0697C25.7891 15.0697 26.5061 14.6344 26.4805 15.0697C26.4805 15.0697 26.6085 15.1464 26.2244 15.5048C25.8404 15.8634 16.4692 24.2872 16.4692 24.2872" fill="#D2E5F1"/>
<path d="M19.6842 26.9239L16.342 29.971C16.342 29.971 16.0808 30.1693 15.7949 30.045L16.4349 24.3849" fill="#B5CFE4"/>
</svg>
