<svg width="5" height="12" viewBox="0 0 5 12" fill="none" xmlns="http://www.w3.org/2000/svg">
<path d="M2.99418 0H1.24869C0.897093 0 0.559236 0.149257 0.323798 0.409675C0.0877352 0.670093 -0.0284224 1.02044 0.0059253 1.37016L0.491165 6.33684C0.538627 6.81834 0.939559 7.1818 1.42355 7.1818H2.81932C3.30331 7.1818 3.70424 6.81834 3.7517 6.33622L4.23694 1.37079C4.27129 1.02044 4.15576 0.670718 3.91907 0.409675C3.68363 0.149257 3.3464 0 2.99418 0Z" fill="#BB3EAF"/>
<path d="M2.12168 11.642C3.15639 11.642 3.99519 10.8032 3.99519 9.76853C3.99519 8.73382 3.15639 7.89502 2.12168 7.89502C1.08697 7.89502 0.248169 8.73382 0.248169 9.76853C0.248169 10.8032 1.08697 11.642 2.12168 11.642Z" fill="#BB3EAF"/>
</svg>
