<svg width="12" height="32" viewBox="0 0 12 32" fill="none" xmlns="http://www.w3.org/2000/svg">
<path d="M8.14502 0H3.39665C2.44018 0 1.52108 0.406033 0.880605 1.11447C0.238428 1.8229 -0.0775636 2.77597 0.0158748 3.72735L1.3359 17.2385C1.46502 18.5484 2.5557 19.5371 3.87233 19.5371H7.66933C8.98597 19.5371 10.0766 18.5484 10.2058 17.2368L11.5258 3.72904C11.6192 2.77597 11.3049 1.8246 10.6611 1.11447C10.0206 0.406033 9.10319 0 8.14502 0Z" fill="#D0B422"/>
<path d="M5.77096 31.6706C8.58576 31.6706 10.8676 29.3887 10.8676 26.5739C10.8676 23.7591 8.58576 21.4773 5.77096 21.4773C2.95616 21.4773 0.674316 23.7591 0.674316 26.5739C0.674316 29.3887 2.95616 31.6706 5.77096 31.6706Z" fill="#D0B422"/>
</svg>
