<svg width="14" height="14" viewBox="0 0 14 14" fill="none" xmlns="http://www.w3.org/2000/svg">
<path d="M11.9 14H2.1C1.54305 14 1.0089 13.7788 0.615076 13.3849C0.221249 12.9911 0 12.457 0 11.9V0.7C0 0.514348 0.0737498 0.336301 0.205025 0.205025C0.336301 0.0737498 0.514348 0 0.7 0H10.5C10.6857 0 10.8637 0.0737498 10.995 0.205025C11.1263 0.336301 11.2 0.514348 11.2 0.7V9.1H14V11.9C14 12.457 13.7788 12.9911 13.3849 13.3849C12.9911 13.7788 12.457 14 11.9 14ZM11.2 10.5V11.9C11.2 12.0857 11.2737 12.2637 11.405 12.395C11.5363 12.5263 11.7143 12.6 11.9 12.6C12.0857 12.6 12.2637 12.5263 12.395 12.395C12.5263 12.2637 12.6 12.0857 12.6 11.9V10.5H11.2ZM9.8 12.6V1.4H1.4V11.9C1.4 12.0857 1.47375 12.2637 1.60503 12.395C1.7363 12.5263 1.91435 12.6 2.1 12.6H9.8ZM2.8 3.5H8.4V4.9H2.8V3.5ZM2.8 6.3H8.4V7.7H2.8V6.3ZM2.8 9.1H6.3V10.5H2.8V9.1Z" fill="white"/>
</svg>
