<svg width="15" height="16" viewBox="0 0 15 16" fill="none" xmlns="http://www.w3.org/2000/svg">
<ellipse cx="7.5" cy="8" rx="7.5" ry="8" fill="#131213"/>
<path d="M5.33301 6.3335C5.33301 5.90252 5.53275 5.48919 5.88828 5.18445C6.24382 4.8797 6.72603 4.7085 7.22884 4.7085H7.77051C8.27331 4.7085 8.75553 4.8797 9.11106 5.18445C9.4666 5.48919 9.66634 5.90252 9.66634 6.3335C9.68629 6.68518 9.59142 7.03381 9.39603 7.3269C9.20064 7.61998 8.91531 7.84165 8.58301 7.9585C8.25071 8.1143 7.96538 8.40984 7.76999 8.80062C7.5746 9.1914 7.47973 9.65626 7.49967 10.1252M7.49967 12.2918V12.2972" stroke="white" stroke-width="1.625" stroke-linecap="round" stroke-linejoin="round"/>
</svg>
