<svg width="42" height="40" viewBox="0 0 42 40" fill="none" xmlns="http://www.w3.org/2000/svg">
<path d="M10.1447 28.4821C9.55387 28.0389 8.58541 27.1258 8.43127 26.8686C8.39329 26.8137 8.24182 26.61 8.09079 26.422C7.32076 25.4729 6.5222 23.9675 6.02496 22.5425C5.68978 21.5763 5.36741 20.0539 5.26253 18.9269C5.2094 18.3603 5.22184 16.8979 5.2804 16.2357C5.33792 15.6247 5.59133 14.4377 5.83177 13.6671C6.28363 12.2215 7.18433 10.514 8.07999 9.42457C8.74604 8.61039 9.67034 7.81329 10.6616 7.19799C12.0571 6.33417 13.5243 5.82595 15.1222 5.65343C17.5337 5.39608 19.6494 5.75034 22.2805 6.85769C23.2018 7.24422 24.9593 8.28484 25.6743 8.86812C26.4367 9.49143 27.6286 10.6172 27.6688 10.7511C27.6757 10.7813 27.6198 10.8291 27.538 10.8606C27.3697 10.931 26.4329 11.4925 25.6597 11.991C25.3513 12.1857 25.0769 12.3345 25.0509 12.3182C25.025 12.3019 24.9016 12.1935 24.7755 12.0729C23.7779 11.1156 22.0215 10.0239 20.6912 9.53085C19.5929 9.12131 18.6424 8.95455 17.4262 8.94728C15.2057 8.94141 13.1996 9.7068 11.7207 11.124C10.6281 12.1727 9.63601 14.0506 9.32457 15.6516C9.23339 16.1432 9.13794 17.3257 9.15585 17.8495C9.21227 19.6968 9.74238 21.391 10.7467 22.9064C11.514 24.066 12.2362 24.778 13.3793 25.4953C14.5521 26.2311 15.6039 26.5909 16.9508 26.7113C18.5453 26.8576 20.2701 26.2521 21.2409 25.1995C21.5682 24.8509 22.0903 24.0189 22.334 23.4574C22.5198 23.0459 22.8891 21.9627 23.0553 21.3681C23.148 21.0225 23.5985 19.5709 23.7102 19.2527C23.7518 19.1287 23.8353 18.9792 23.886 18.923C23.9983 18.8019 24.4526 18.5641 24.6976 18.4952C24.8714 18.449 27.9256 18.3463 30.2409 18.3082C30.5642 18.304 30.9628 18.2952 31.1282 18.2955C31.2922 18.2896 31.5779 18.2877 31.7628 18.2898C31.9477 18.292 32.2213 18.2928 32.3685 18.2972C33.2781 18.2984 33.5327 18.3132 33.6761 18.3566C33.9263 18.436 39.0441 21.73 39.0091 21.7857C38.9718 21.8452 38.0329 21.8824 35.5434 21.9096C34.7545 21.922 33.7687 21.9351 33.3506 21.9419C32.9325 21.9488 32.1948 21.9622 31.7038 21.9698C31.2165 21.9798 30.3329 21.9949 29.741 22.0066C29.1492 22.0183 28.3264 22.0353 27.9083 22.0422C27.1014 22.0587 26.928 22.0794 26.8247 22.1699C26.7842 22.2014 26.6869 22.5131 26.6002 22.8987C26.3273 24.0424 26.1802 24.6231 26.0108 25.1898C25.9205 25.4904 25.827 25.8044 25.8049 25.8889C25.7792 25.9712 25.6964 26.235 25.6142 26.4733C25.5379 26.7102 25.4509 26.9973 25.4247 27.105C25.3684 27.3596 25.1516 27.7051 24.8037 28.1029C24.3236 28.6454 24.1538 28.7512 22.5542 29.4869C19.8019 30.7573 16.9851 31.0917 14.3766 30.4593C12.9201 30.1097 11.2685 29.3374 10.1447 28.4821Z" fill="#B044D6"/>
<path d="M13.9153 19.2827C13.138 18.5102 12.7726 17.1058 13.0229 15.8495C13.1398 15.2758 13.2832 14.9154 13.6048 14.4028C14.0211 13.7476 14.4177 13.3546 15.0699 12.9665C16.6862 11.998 18.6962 12.0426 20.344 13.0765C20.7189 13.3117 20.8668 13.4304 21.1259 13.7017C21.4925 14.0819 21.5795 14.24 21.5003 14.3663C21.428 14.4815 20.3066 15.3619 19.9503 15.5836C19.7745 15.6907 19.5327 15.7875 19.2524 15.8549C18.7993 15.9589 18.7054 15.9518 18.0555 15.751C17.0709 15.449 16.6187 15.5432 15.8345 16.2159C15.6157 16.3996 15.5216 16.5166 15.2793 16.9029C14.6723 17.8784 14.5534 18.7357 14.9027 19.6382L14.9775 19.8404L14.8061 19.8002C14.5308 19.7362 14.1453 19.5098 13.9153 19.2827Z" fill="#B044D6"/>
<path d="M18.6689 18.771L18.5621 18.5538L18.7672 18.4082C18.8794 18.3284 19.0181 18.198 19.0768 18.1209C19.1802 17.9891 19.1821 17.9696 19.0819 17.6841C18.9374 17.288 18.9458 17.2415 19.1695 17.1489C19.3304 17.0738 21.3696 15.827 23.5564 14.4605C24.2774 14.0122 26.5836 12.6119 27.9092 11.8182L28.4488 11.4941L28.6343 11.6519C28.9106 11.8874 29.4702 12.2075 29.7102 12.2701C30.0765 12.3705 30.3888 12.3179 30.5007 12.1396C30.5473 12.0654 30.4202 11.9959 30.1179 11.9253C29.8634 11.8692 29.6291 11.7481 29.4975 11.6034C29.4312 11.5359 29.4354 11.5127 29.5496 11.372C29.6166 11.2898 29.732 11.1966 29.8041 11.1642L29.9389 11.1142L31.0705 11.8086C32.1551 12.4789 32.2047 12.5152 32.314 12.6873C32.3737 12.7817 32.4107 12.8877 32.3944 12.9137C32.3664 12.9583 32.1552 13.1053 31.5518 13.4981C31.1969 13.7258 29.4302 14.8019 28.6632 15.2577C27.2115 16.1121 26.8106 16.3472 26.0496 16.8015C25.6045 17.0658 25.1845 17.3148 25.1101 17.3509C25.0333 17.3908 24.7831 17.534 24.5473 17.6708C24.3115 17.8075 23.8924 18.0468 23.6194 18.2016C23.3464 18.3564 22.9668 18.5738 22.7752 18.6814C22.0305 19.1098 21.7906 19.2284 21.7312 19.1911C21.6644 19.1492 21.4211 18.6549 21.3362 18.3945C21.2393 18.0956 21.1761 18.0973 20.4693 18.4407C19.814 18.7595 19.2853 18.9921 19.0659 19.0615C18.8995 19.1124 18.7928 19.0351 18.6689 18.771Z" fill="#B044D6"/>
</svg>
