<svg width="46" height="46" viewBox="0 0 46 46" fill="none" xmlns="http://www.w3.org/2000/svg">
<path d="M18.6875 37.375C18.4984 37.3761 18.3108 37.3398 18.1357 37.2683C17.9605 37.1968 17.8012 37.0914 17.6669 36.9581L4.72941 24.0206C4.59467 23.887 4.48773 23.728 4.41475 23.5528C4.34177 23.3777 4.3042 23.1898 4.3042 23C4.3042 22.8102 4.34177 22.6223 4.41475 22.4472C4.48773 22.272 4.59467 22.113 4.72941 21.9794L17.6669 9.04188C17.8009 8.90785 17.9601 8.80153 18.1352 8.729C18.3103 8.65646 18.498 8.61913 18.6875 8.61913C18.8771 8.61913 19.0648 8.65646 19.2399 8.729C19.415 8.80153 19.5741 8.90785 19.7082 9.04188C19.8422 9.17591 19.9485 9.33503 20.021 9.51015C20.0936 9.68527 20.1309 9.87296 20.1309 10.0625C20.1309 10.2521 20.0936 10.4397 20.021 10.6149C19.9485 10.79 19.8422 10.9491 19.7082 11.0831L7.77691 23L19.7082 34.9169C19.8429 35.0505 19.9498 35.2095 20.0228 35.3847C20.0958 35.5599 20.1334 35.7477 20.1334 35.9375C20.1334 36.1273 20.0958 36.3152 20.0228 36.4903C19.9498 36.6655 19.8429 36.8245 19.7082 36.9581C19.5738 37.0914 19.4145 37.1968 19.2394 37.2683C19.0643 37.3398 18.8767 37.3761 18.6875 37.375Z" fill="#512068"/>
<path d="M40.25 24.4375H5.75C5.36875 24.4375 5.00312 24.286 4.73353 24.0165C4.46395 23.7469 4.3125 23.3812 4.3125 23C4.3125 22.6187 4.46395 22.2531 4.73353 21.9835C5.00312 21.7139 5.36875 21.5625 5.75 21.5625H40.25C40.6312 21.5625 40.9969 21.7139 41.2665 21.9835C41.536 22.2531 41.6875 22.6187 41.6875 23C41.6875 23.3812 41.536 23.7469 41.2665 24.0165C40.9969 24.286 40.6312 24.4375 40.25 24.4375Z" fill="#512068"/>
</svg>
