<svg width="20" height="18" viewBox="0 0 20 18" fill="none" xmlns="http://www.w3.org/2000/svg">
<path d="M4.6087 0H15.3913C17.913 0 20 2.10796 20 4.65507V8.43182C20 10.9789 17.913 13.0869 15.3913 13.0869H10.7391L6.21739 17.6541C6.17391 17.6541 5.78261 18.1372 5.26087 17.9615C4.91304 17.8737 4.69565 17.5663 4.69565 17.215V13.0869C2.08696 13.0869 0 11.0668 0 8.43182V4.65507C0 2.10796 2.08696 0 4.6087 0ZM4.3913 9.66146C4.13043 9.66146 3.95652 9.4858 3.95652 9.22231C3.95652 8.95881 4.13043 8.78315 4.3913 8.78315H10.6087C10.8696 8.78315 11.0435 8.95881 11.0435 9.22231C11.0435 9.4858 10.8696 9.66146 10.6087 9.66146H4.3913ZM4.3913 7.15827C4.13043 7.15827 3.95652 6.93869 3.95652 6.71911C3.95652 6.45562 4.13043 6.27995 4.3913 6.27995H15.6087C15.8696 6.27995 16.0435 6.45562 16.0435 6.71911C16.0435 6.93869 15.8696 7.15827 15.6087 7.15827H4.3913ZM4.3913 4.61115C4.13043 4.61115 3.95652 4.43549 3.95652 4.172C3.95652 3.9085 4.13043 3.73284 4.3913 3.73284H13.3913C13.6087 3.73284 13.8261 3.9085 13.8261 4.172C13.8261 4.43549 13.6087 4.61115 13.3913 4.61115H4.3913ZM15.3913 1.22964H4.6087C2.73913 1.22964 1.21739 2.76669 1.21739 4.65507V8.43182C1.21739 10.3202 2.73913 11.8573 4.6087 11.8573H4.82609C5.3913 11.8573 5.91304 12.3842 5.91304 12.9551V16.2049L10.2174 11.8573H15.3913C17.2609 11.8573 18.7826 10.3202 18.7826 8.43182V4.65507C18.7826 2.76669 17.2609 1.22964 15.3913 1.22964Z" fill="#7D7575"/>
</svg>
