<svg width="19" height="14" viewBox="0 0 19 14" fill="none" xmlns="http://www.w3.org/2000/svg">
<path d="M6.65604 6.5282C5.53703 6.5282 4.62323 7.43812 4.62323 8.56101C4.62323 9.68389 5.53315 10.5938 6.65604 10.5938C7.77505 10.5938 8.68885 9.68389 8.68885 8.56101C8.68885 7.43812 7.77505 6.5282 6.65604 6.5282ZM6.65604 9.6413C6.05975 9.6413 5.57187 9.1573 5.57187 8.55714C5.57187 7.95697 6.05588 7.47297 6.65604 7.47297C7.25233 7.47297 7.74021 7.95697 7.74021 8.55714C7.74021 9.1573 7.25233 9.6413 6.65604 9.6413Z" fill="#B3B3B3"/>
<path d="M14.3884 8.55716C14.3884 7.43815 13.4784 6.52435 12.3556 6.52435C11.2366 6.52435 10.3228 7.43428 10.3228 8.55716C10.3228 9.68005 11.2327 10.59 12.3556 10.59C13.4784 10.59 14.3884 9.67618 14.3884 8.55716ZM12.3556 9.64133C11.7593 9.64133 11.2714 9.15733 11.2714 8.55716C11.2714 7.957 11.7554 7.473 12.3556 7.473C12.9519 7.473 13.4397 7.957 13.4397 8.55716C13.4397 9.15733 12.9557 9.64133 12.3556 9.64133Z" fill="#B3B3B3"/>
<path d="M17.7067 3.51192C17.3815 1.57591 15.7824 0.143265 13.8115 0.0232321L13.7302 0.00774392C13.7031 0.0038719 13.676 0 13.6489 0H5.45955C3.39576 0 1.64948 1.47524 1.30874 3.50031L0.0580803 10.2028C0.0193601 10.3848 0 10.5667 0 10.7487C0 12.2123 1.18871 13.4011 2.65233 13.4011C3.53515 13.4011 4.35989 12.9635 4.8439 12.2433L5.44793 11.407C5.60281 11.194 5.55248 10.8997 5.33951 10.7449C5.12655 10.59 4.83228 10.6403 4.6774 10.8533L4.06562 11.7012C3.74811 12.1736 3.21765 12.4563 2.65233 12.4563C1.71143 12.4563 0.948645 11.6896 0.948645 10.7526C0.948645 10.6364 0.960261 10.5164 0.987365 10.3886L2.23803 3.67067C2.50132 2.09476 3.85653 0.952517 5.45568 0.952517H13.6101L13.676 0.964133C13.6953 0.968005 13.7108 0.968005 13.7302 0.971877C15.2403 1.05319 16.518 2.19156 16.7697 3.67842L18.0243 10.3964C18.0475 10.5125 18.0591 10.6326 18.0591 10.7487C18.0591 11.6896 17.2924 12.4524 16.3554 12.4524C15.7862 12.4524 15.2596 12.1698 14.9305 11.6858L14.28 10.7874C14.1251 10.5745 13.8309 10.528 13.6179 10.679C13.4049 10.8339 13.3585 11.1282 13.5095 11.3411L14.1484 12.2278C14.644 12.9597 15.4648 13.3972 16.3477 13.3972C17.8113 13.3972 19 12.2085 19 10.7449C19 10.5629 18.9806 10.377 18.9458 10.2066L17.7067 3.51192Z" fill="#B3B3B3"/>
<path d="M11.9645 4.47216C12.3195 4.47216 12.6073 4.18438 12.6073 3.8294C12.6073 3.47442 12.3195 3.18665 11.9645 3.18665C11.6095 3.18665 11.3218 3.47442 11.3218 3.8294C11.3218 4.18438 11.6095 4.47216 11.9645 4.47216Z" fill="#B3B3B3"/>
<path d="M14.5936 4.47216C14.9486 4.47216 15.2364 4.18438 15.2364 3.8294C15.2364 3.47442 14.9486 3.18665 14.5936 3.18665C14.2386 3.18665 13.9509 3.47442 13.9509 3.8294C13.9509 4.18438 14.2386 4.47216 14.5936 4.47216Z" fill="#B3B3B3"/>
<path d="M5.77704 1.92438C5.51375 1.92438 5.30079 2.13734 5.30079 2.40064V3.25635H4.44507C4.18177 3.25635 3.96881 3.46931 3.96881 3.73261C3.96881 3.99591 4.18177 4.20887 4.44507 4.20887H5.30079V5.06458C5.30079 5.32788 5.51375 5.54084 5.77704 5.54084C6.04034 5.54084 6.2533 5.32788 6.2533 5.06458V4.20887H7.10902C7.37232 4.20887 7.58528 3.99591 7.58528 3.73261C7.58528 3.46931 7.37232 3.25635 7.10902 3.25635H6.2533V2.40064C6.2533 2.13734 6.04034 1.92438 5.77704 1.92438Z" fill="#B3B3B3"/>
<path d="M13.2771 5.78478C13.6321 5.78478 13.9198 5.49701 13.9198 5.14202C13.9198 4.78704 13.6321 4.49927 13.2771 4.49927C12.9221 4.49927 12.6343 4.78704 12.6343 5.14202C12.6343 5.49701 12.9221 5.78478 13.2771 5.78478Z" fill="#B3B3B3"/>
<path d="M13.2771 3.15569C13.6321 3.15569 13.9198 2.86792 13.9198 2.51293C13.9198 2.15795 13.6321 1.87018 13.2771 1.87018C12.9221 1.87018 12.6343 2.15795 12.6343 2.51293C12.6343 2.86792 12.9221 3.15569 13.2771 3.15569Z" fill="#B3B3B3"/>
</svg>
