<svg width="10" height="10" viewBox="0 0 10 10" fill="none" xmlns="http://www.w3.org/2000/svg">
<path d="M6.3955 3.10741L1.68788 7.8192C1.55122 7.95592 1.55122 8.17835 1.68788 8.31507C1.75519 8.38241 1.84494 8.41711 1.93469 8.41711C2.02443 8.41711 2.11418 8.38241 2.18149 8.31507L6.8891 3.60533C7.02576 3.4686 7.02576 3.24618 6.8891 3.10946C6.75448 2.97069 6.53216 2.97069 6.3955 3.10741Z" fill="white"/>
<path d="M8.7941 3.91366C8.88385 3.91366 8.97359 3.87897 9.0409 3.81163L9.5549 3.2974C10.1485 2.70358 10.1485 1.73836 9.5549 1.14658L8.85325 0.444611C8.56565 0.156884 8.18423 -0.000244141 7.77833 -0.000244141C7.37243 -0.000244141 6.99101 0.158924 6.70341 0.444611L6.18941 0.958847C6.05275 1.09557 6.05275 1.318 6.18941 1.45472L8.5473 3.81367C8.61461 3.87897 8.70435 3.91366 8.7941 3.91366ZM7.19906 0.9364C7.35407 0.781313 7.56008 0.695607 7.78037 0.695607C7.99862 0.695607 8.20667 0.781313 8.36168 0.9364L9.06334 1.63837C9.38357 1.95875 9.38357 2.47911 9.06334 2.79949L8.7941 3.06885L6.92982 1.20372L7.19906 0.9364Z" fill="white"/>
<path d="M3.32161 9.53133L8.28827 4.56242C8.42493 4.4257 8.42493 4.20327 8.28827 4.06655C8.15161 3.92983 7.92928 3.92983 7.79262 4.06655L2.91163 8.95383L0.757714 9.2436L1.04735 7.08871L5.71009 2.42385C5.84675 2.28713 5.84675 2.0647 5.71009 1.92798C5.57343 1.79126 5.35111 1.79126 5.21445 1.92798L0.470117 6.67854C0.415045 6.73364 0.38037 6.80302 0.370172 6.87852L0.00302694 9.60479C-0.0112509 9.71294 0.0254636 9.8211 0.102972 9.89864C0.168242 9.96394 0.257989 10.0007 0.349775 10.0007C0.366093 10.0007 0.38037 9.99863 0.396688 9.99659L3.12172 9.62928C3.19719 9.62111 3.26858 9.58642 3.32161 9.53133Z" fill="white"/>
</svg>
