<svg width="31" height="14" viewBox="0 0 31 14" fill="none" xmlns="http://www.w3.org/2000/svg">
<path d="M28.8632 2.04808C27.5061 0.736951 25.6656 0.000372898 23.7464 0.000372898C21.8272 0.000372898 19.9867 0.736951 18.6296 2.04808L15.4915 5.07989L12.3532 2.04776C11.3412 1.06999 10.0518 0.40411 8.64807 0.134342C7.24435 -0.135426 5.78937 0.0030296 4.46711 0.5322C3.14484 1.06137 2.01468 1.95749 1.21954 3.10723C0.424403 4.25698 0 5.60872 0 6.9915C0 8.37429 0.424403 9.72603 1.21954 10.8758C2.01468 12.0255 3.14484 12.9216 4.46711 13.4508C5.78937 13.98 7.24435 14.1184 8.64807 13.8487C10.0518 13.5789 11.3412 12.913 12.3532 11.9352L15.4912 8.90337L18.6293 11.9352C19.3004 12.5881 20.0983 13.1066 20.9772 13.4609C21.8561 13.8152 22.7988 13.9984 23.7512 14C24.7035 14.0016 25.6468 13.8215 26.527 13.4701C27.4072 13.1188 28.207 12.603 28.8804 11.9524C29.5538 11.3017 30.0877 10.5291 30.4515 9.67869C30.8152 8.8283 31.0016 7.91691 31 6.99677C30.9984 6.07663 30.8088 5.16584 30.4421 4.31664C30.0755 3.46743 29.5389 2.69651 28.8632 2.04808ZM10.8913 10.523C10.1684 11.2214 9.24739 11.697 8.24474 11.8897C7.24209 12.0824 6.20282 11.9835 5.25835 11.6055C4.31388 11.2276 3.50662 10.5875 2.93867 9.76622C2.37072 8.94498 2.06758 7.97946 2.06758 6.99175C2.06758 6.00405 2.37072 5.03853 2.93867 4.21728C3.50662 3.39604 4.31388 2.75595 5.25835 2.37797C6.20282 1.99999 7.24209 1.90109 8.24474 2.09378C9.24739 2.28646 10.1684 2.76208 10.8913 3.46048L14.4577 6.90629V7.07771L10.8913 10.523ZM27.4009 10.523C26.4316 11.4595 25.1169 11.9857 23.7461 11.9857C22.3752 11.9857 21.0606 11.4595 20.0912 10.523L16.5247 7.07721V6.90592L20.0912 3.46011C20.5712 2.99638 21.141 2.62854 21.7682 2.37759C22.3953 2.12664 23.0675 1.99749 23.7463 1.99751C24.4251 1.99753 25.0972 2.12673 25.7243 2.37773C26.3514 2.62872 26.9212 2.9966 27.4012 3.46036C27.8812 3.92412 28.2619 4.47467 28.5216 5.08059C28.7814 5.6865 28.915 6.33591 28.915 6.99174C28.915 7.64757 28.7813 8.29697 28.5215 8.90287C28.2617 9.50877 27.8809 10.0593 27.4009 10.523Z" fill="#D4D4D4"/>
</svg>
