<?xml version="1.0"?>
<svg width="18" height="18" xmlns="http://www.w3.org/2000/svg" xmlns:svg="http://www.w3.org/2000/svg" enable-background="new 0 0 18 18">
 <g class="layer">
  <title>Layer 1</title>
  <circle cx="9" cy="9" fill="#0073cf" id="svg_1" r="9"/>
  <path d="m10.17,6.39a1.17,1.17 0 0 1 -2.34,0a1.17,1.17 0 1 1 2.34,0z" fill="#fecb00" id="svg_2"/>
  <path d="m7.1,2.03c-1.98,0.03 -4.02,4.79 0.74,7.2l0,6.74l0.83,0l-0.22,-6.88c-0.5,-0.16 -2.23,-1.27 -2.23,-2.73c0,-0.61 0.38,-1.61 1.11,-2.08c0.44,-0.28 0.88,-0.57 0.88,-1.17s-0.49,-1.08 -1.08,-1.08l-0.03,0zm3.74,0a1.08,1.08 0 0 0 -1.05,1.08c0,0.6 0.44,0.89 0.88,1.17c0.73,0.47 1.11,1.47 1.11,2.08c0,1.45 -1.73,2.57 -2.23,2.73l0,6.88l0.61,0l0,-6.74c4.77,-2.42 2.7,-7.2 0.71,-7.2l-0.03,0zm-6.89,1.69c-0.53,0.02 -0.89,0.41 -0.89,1.01c0,1.13 1.95,4.08 3.95,4.82l0,6.42l0.83,0l0,-6.74c-1.93,-1.17 -3.32,-2.65 -2.7,-4.76c0,-0.69 -0.93,-0.75 -1.17,-0.75l-0.01,0l-0.01,0zm10.04,0c-0.26,0.01 -1.02,0.09 -1.02,0.75c-0.47,2.28 -1.1,3.8 -2.81,4.76l0,6.74l0.83,0l0,-6.42c2,-0.74 3.95,-3.69 3.95,-4.82c0,-0.61 -0.37,-0.99 -0.91,-1.01l-0.04,0zm-11.4,1.7c-0.29,0.02 -0.56,0.24 -0.56,0.65c0,0.13 -0.01,0.32 0.35,0.77c1.03,1.27 3.3,2.82 3.8,2.94l0,6.19l0.83,0l0,-6.42c-1.16,-0.51 -2.88,-2.16 -3.61,-3.78c-0.12,-0.28 -0.57,-0.36 -0.81,-0.35zm12.76,0c-0.22,0.01 -0.62,0.04 -0.73,0.29c-0.73,1.62 -2.46,3.33 -3.63,3.84l0,6.42l0.83,0l0,-6.19c0.51,-0.12 2.77,-1.67 3.8,-2.94c0.36,-0.45 0.35,-0.64 0.35,-0.77c0,-0.44 -0.31,-0.66 -0.62,-0.65zm-13.49,1.4c-0.29,0.02 -0.49,0.33 -0.49,0.51c0,0.65 3,2.62 3.88,2.72l0,5.92l0.93,0l0,-6.19c-0.69,-0.31 -2.78,-2.32 -3.8,-2.94c-0.29,-0.05 -0.36,-0.03 -0.52,-0.02zm14.22,0c-1.27,0.03 -2.76,2.08 -4.26,2.96l0,6.19l0.93,0l0,-5.92c0.88,-0.1 3.88,-2.07 3.88,-2.72c0,-0.2 -0.23,-0.53 -0.55,-0.51zm-7.63,2.27l0.22,6.88l0.88,0l0,-6.88l-1.1,0z" fill="#fff" id="svg_3"/>
 </g>
</svg>