<svg width="23" height="23" viewBox="0 0 23 23" fill="none" xmlns="http://www.w3.org/2000/svg">
<path d="M16.3254 22.2857H6.03973C3.94449 22.2857 2.2937 20.7814 2.2937 18.9985V8.91426C2.2937 8.57997 2.54767 8.35712 2.92862 8.35712C3.30957 8.35712 3.56354 8.57997 3.56354 8.91426V18.9985C3.56354 20.2243 4.7064 21.1714 6.03973 21.1714H16.3254C17.7223 21.1714 18.8016 20.1685 18.8016 18.9985V8.91426C18.8016 8.57997 19.0556 8.35712 19.4366 8.35712C19.8175 8.35712 20.0715 8.57997 20.0715 8.91426V18.9985C20.0715 20.7814 18.3572 22.2857 16.3254 22.2857Z" fill="white"/>
<path d="M19.6905 2.73H14.8651C14.5476 1.17 13.0238 0 11.1825 0C9.34125 0 7.81744 1.17 7.49998 2.73H2.67459C1.21427 2.73 0.0714111 3.73286 0.0714111 5.01429C0.0714111 6.29571 1.21427 7.24286 2.67459 7.24286H19.754C21.2143 7.24286 22.3571 6.24 22.3571 4.95857C22.3571 3.67714 21.1508 2.73 19.6905 2.73ZM11.1825 1.11429C12.3254 1.11429 13.2778 1.78286 13.5317 2.73H8.76982C9.08729 1.78286 10.0397 1.11429 11.1825 1.11429ZM19.6905 6.12857H2.67459C1.97617 6.12857 1.34125 5.62714 1.34125 4.95857C1.34125 4.34571 1.91268 3.78857 2.67459 3.78857H19.754C20.4524 3.78857 21.0873 4.29 21.0873 4.95857C21.0238 5.62714 20.4524 6.12857 19.6905 6.12857Z" fill="white"/>
<path d="M6.73795 19.5558C6.357 19.5558 6.10303 19.3329 6.10303 18.9986V9.69435C6.10303 9.36006 6.357 9.13721 6.73795 9.13721C7.1189 9.13721 7.37287 9.36006 7.37287 9.69435V18.9986C7.37287 19.2772 7.05541 19.5558 6.73795 19.5558Z" fill="white"/>
<path d="M15.6271 19.5558C15.2462 19.5558 14.9922 19.3329 14.9922 18.9986V9.69435C14.9922 9.36006 15.2462 9.13721 15.6271 9.13721C16.0081 9.13721 16.262 9.36006 16.262 9.69435V18.9986C16.262 19.2772 15.9446 19.5558 15.6271 19.5558Z" fill="white"/>
<path d="M11.1825 19.5558C10.8016 19.5558 10.5476 19.3329 10.5476 18.9986V9.69435C10.5476 9.36006 10.8016 9.13721 11.1825 9.13721C11.5635 9.13721 11.8174 9.36006 11.8174 9.69435V18.9986C11.8174 19.2772 11.5 19.5558 11.1825 19.5558Z" fill="white"/>
</svg>
