<svg width="23" height="23" viewBox="0 0 23 23" fill="none" xmlns="http://www.w3.org/2000/svg">
<path d="M14.8939 6.92526L4.40381 17.4247C4.09928 17.7293 4.09928 18.225 4.40381 18.5297C4.5538 18.6797 4.75378 18.757 4.95377 18.757C5.15375 18.757 5.35374 18.6797 5.50373 18.5297L15.9939 8.03477C16.2984 7.73011 16.2984 7.23447 15.9939 6.9298C15.6939 6.6206 15.1985 6.6206 14.8939 6.92526Z" fill="white"/>
<path d="M20.239 8.72142C20.439 8.72142 20.639 8.64412 20.789 8.49407L21.9344 7.34818C23.257 6.02495 23.257 3.87413 21.9344 2.55545L20.3709 0.991224C19.73 0.350072 18.8801 -6.10352e-05 17.9756 -6.10352e-05C17.0711 -6.10352e-05 16.2212 0.354619 15.5803 0.991224L14.4349 2.13711C14.1304 2.44177 14.1304 2.93742 14.4349 3.24208L19.6891 8.49861C19.8391 8.64412 20.0391 8.72142 20.239 8.72142ZM16.6848 2.08709C17.0302 1.74151 17.4893 1.55053 17.9801 1.55053C18.4665 1.55053 18.9301 1.74151 19.2755 2.08709L20.839 3.65132C21.5526 4.36523 21.5526 5.52476 20.839 6.23867L20.239 6.83889L16.0848 2.68277L16.6848 2.08709Z" fill="white"/>
<path d="M8.04447 21.2398L19.1118 10.1674C19.4164 9.86278 19.4164 9.36714 19.1118 9.06248C18.8073 8.75782 18.3119 8.75782 18.0074 9.06248L7.1309 19.953L2.33126 20.5987L2.97667 15.7968L13.3668 5.402C13.6713 5.09734 13.6713 4.6017 13.3668 4.29704C13.0623 3.99238 12.5669 3.99238 12.2623 4.29704L1.6904 14.8829C1.56768 15.0056 1.49041 15.1602 1.46769 15.3285L0.649567 21.4035C0.617751 21.6445 0.699564 21.8855 0.872278 22.0583C1.01772 22.2038 1.21771 22.2857 1.42224 22.2857C1.4586 22.2857 1.49041 22.2811 1.52677 22.2766L7.59905 21.4581C7.76722 21.4399 7.9263 21.3626 8.04447 21.2398Z" fill="white"/>
</svg>
