<svg width="11" height="11" viewBox="0 0 11 11" fill="none" xmlns="http://www.w3.org/2000/svg">
<path d="M6.89204 5.28072L0.640813 0.0916331C0.493628 -0.0305443 0.257575 -0.0305443 0.110389 0.0916331C-0.0367965 0.21381 -0.0367965 0.409755 0.110389 0.531933L6.09501 5.49971L0.110387 10.4675C-0.0367988 10.5897 -0.0367988 10.7856 0.110387 10.9078C0.182591 10.9677 0.279789 11 0.37421 11C0.468631 11 0.56583 10.97 0.638034 10.9078L6.88926 5.71871C7.03645 5.59884 7.03645 5.40059 6.89204 5.28072Z" fill="white"/>
<path d="M10.892 5.28072L4.64081 0.0916331C4.49363 -0.0305443 4.25758 -0.0305443 4.11039 0.0916331C3.9632 0.21381 3.9632 0.409755 4.11039 0.531933L10.095 5.49971L4.11039 10.4675C3.9632 10.5897 3.9632 10.7856 4.11039 10.9078C4.18259 10.9677 4.27979 11 4.37421 11C4.46863 11 4.56583 10.97 4.63803 10.9078L10.8893 5.71871C11.0364 5.59884 11.0364 5.40059 10.892 5.28072Z" fill="white"/>
</svg>
