<svg width="5" height="14" viewBox="0 0 5 14" fill="none" xmlns="http://www.w3.org/2000/svg">
<path d="M3.52847 0H1.47151C1.05717 0 0.659027 0.17589 0.381577 0.482778C0.103391 0.789666 -0.0334942 1.20253 0.00698262 1.61466L0.578809 7.46761C0.634741 8.03502 1.10722 8.46334 1.67757 8.46334H3.3224C3.89276 8.46334 4.36523 8.03502 4.42116 7.46687L4.99299 1.61539C5.03347 1.20253 4.89732 0.790402 4.6184 0.482778C4.34095 0.17589 3.94354 0 3.52847 0Z" fill="#BB3EAF"/>
<path d="M2.50031 13.7194C3.71966 13.7194 4.70814 12.7309 4.70814 11.5115C4.70814 10.2922 3.71966 9.30371 2.50031 9.30371C1.28096 9.30371 0.29248 10.2922 0.29248 11.5115C0.29248 12.7309 1.28096 13.7194 2.50031 13.7194Z" fill="#BB3EAF"/>
</svg>
