<svg width="17" height="17" viewBox="0 0 17 17" fill="none" xmlns="http://www.w3.org/2000/svg">
<path d="M10.7368 4.85712H9.39471V6.0714H10.7368V4.85712Z" fill="#B3B3B3"/>
<path d="M6.71076 4.85712H5.36865V6.0714H6.71076V4.85712Z" fill="#B3B3B3"/>
<path d="M14.7632 10.9286H11.4079V9.71429H12.0789C12.4348 9.71392 12.7759 9.58587 13.0275 9.35822C13.2791 9.13058 13.4206 8.82194 13.4211 8.5V6.07143H14.7632V4.85714H13.4211V3.64286C13.4206 3.32092 13.2791 3.01228 13.0275 2.78464C12.7759 2.55699 12.4348 2.42894 12.0789 2.42857H10.7368V0H9.39474V2.42857H6.71053V0H5.36842V2.42857H4.02632C3.67049 2.42894 3.32936 2.55699 3.07776 2.78464C2.82615 3.01228 2.68462 3.32092 2.68421 3.64286V4.85714H1.34211V6.07143H2.68421V8.5C2.68462 8.82194 2.82615 9.13058 3.07776 9.35822C3.32936 9.58587 3.67049 9.71392 4.02632 9.71429H4.69737V10.9286H1.34211C0.986282 10.9289 0.64515 11.057 0.393545 11.2846C0.14194 11.5123 0.000408492 11.8209 0 12.1429V17H1.34211V12.1429H14.7632V17H16.1053V12.1429C16.1049 11.8209 15.9633 11.5123 15.7117 11.2846C15.4601 11.057 15.119 10.9289 14.7632 10.9286ZM4.02632 3.64286H12.0789V8.5H4.02632V3.64286ZM6.03947 9.71429H10.0658V10.9286H6.03947V9.71429Z" fill="#B3B3B3"/>
</svg>
