<svg width="23" height="22" viewBox="0 0 23 22" fill="none" xmlns="http://www.w3.org/2000/svg">
<path d="M5.7965 0.322179C6.2456 0.751751 6.2456 1.44824 5.7965 1.87781L3.92634 3.66666H13.4167C18.7094 3.66666 23 7.77072 23 12.8333C23 17.896 18.7094 22 13.4167 22C8.12393 22 3.83333 17.896 3.83333 12.8333C3.83333 12.2258 4.34821 11.7333 4.98333 11.7333C5.61845 11.7333 6.13333 12.2258 6.13333 12.8333C6.13333 16.681 9.39419 19.8 13.4167 19.8C17.4392 19.8 20.7 16.681 20.7 12.8333C20.7 8.98575 17.4392 5.86666 13.4167 5.86666H3.92634L5.7965 7.65551C6.2456 8.08509 6.2456 8.78158 5.7965 9.21115C5.34741 9.64072 4.61926 9.64072 4.17016 9.21115L0.336824 5.54448C-0.112275 5.11491 -0.112275 4.41842 0.336824 3.98885L4.17016 0.322179C4.61926 -0.107393 5.34741 -0.107393 5.7965 0.322179Z" fill="white"/>
</svg>
