<!-- icon666.com - MILLIONS vector ICONS FREE --><svg fill="none" viewBox="0 0 512 512" xmlns="http://www.w3.org/2000/svg"><g clip-rule="evenodd" fill-rule="evenodd"><path d="m256 32c123.712 0 224 100.288 224 224s-100.288 224-224 224-224-100.288-224-224 100.288-224 224-224z" fill="#32ab45"></path><path d="m144 61.9688v388.0652c-66.9538-38.73-112-111.121-112-194.032 0-82.912 45.0462-155.303 112-194.0332z" fill="#fbfbfb"></path><path d="m313.555 169.797c-7.165 1.586-14.237 4.289-20.962 8.171-34.09 19.682-46.372 62.231-27.433 95.035 18.94 32.804 61.929 43.441 96.019 23.759 6.725-3.882 12.602-8.655 17.557-14.068-7.077 18.881-20.714 35.69-39.847 46.736-42.612 24.603-96.349 11.306-120.023-29.699s-8.322-94.191 34.291-118.793c19.133-11.047 40.508-14.453 60.398-11.141z" fill="#fbfbfb"></path></g><path d="m359.981 180.291 17.278 15.557 20.135-11.625-9.457 21.239 17.278 15.557-23.122-2.43-9.456 21.239-4.834-22.741-23.122-2.43 20.134-11.625z" fill="#fbfbfb"></path></svg>