<!-- icon666.com - MILLIONS vector ICONS FREE --><svg id="Слой_1" viewBox="0 0 512 512" xmlns="http://www.w3.org/2000/svg" data-name="Слой 1"><path d="m256 512c141.38 0 256-114.63 256-256s-114.62-256-256-256-256 114.63-256 256 114.61 256 256 256z" fill="#f0f0f0"></path><path d="m503.18 189.15c-29.37-108.94-128.9-189.15-247.18-189.15-7.42 0-14.86.28-22.26 1v188.15zm-403 269.94a256.64 256.64 0 0 1 -91.37-136.24v-.15h91.35zm155.82 52.91-22.26-1v-188.15h269.44c-29.39 108.93-128.91 189.15-247.18 189.15zm-155.84-459.09a255.94 255.94 0 0 0 -91.35 136.24h91.35z" fill="#d80027" fill-rule="evenodd"></path><path d="m509.83 222.58h-309.47v-216.46a252 252 0 0 0 -66.79 25v191.46h-131.41a259.62 259.62 0 0 0 0 66.84h131.41v191.43a256.42 256.42 0 0 0 66.79 25v-216.43h309.47a258.73 258.73 0 0 0 0-66.84z" fill="#0052b4"></path></svg>